inDegrees=no
num_controls=7
num_derivatives=13
num_iterations=119
num_multipliers=7
num_parameters=0
num_slacks=7
num_states=26
objective=0.476977
objective_accelerations=0.044258
objective_balance=0.003625
objective_effort=0.040476
objective_height=0.382954
objective_ligament=0.005663
solver_duration=1623.519926
status=Solve_Succeeded
success=true
DataType=double
version=3
OpenSimVersion=4.5
endheader
time	/jointset/ground_pelvis/pelvis_tilt/value	/jointset/ground_pelvis/pelvis_tx/value	/jointset/ground_pelvis/pelvis_ty/value	/jointset/hip_l/hip_flexion_l/value	/jointset/hip_l/hip_adduction_l/value	/jointset/hip_l/hip_rotation_l/value	/jointset/back/lumbar_extension/value	/jointset/patellofemoral_l/patellar_flexion_l/value	/jointset/knee_l/knee_flexion_l/value	/jointset/knee_l/knee_adduction_l/value	/jointset/knee_l/knee_rotation_l/value	/jointset/ankle_l/ankle_angle_l/value	/jointset/subtalar_l/subtalar_angle_l/value	/jointset/ground_pelvis/pelvis_tilt/speed	/jointset/ground_pelvis/pelvis_tx/speed	/jointset/ground_pelvis/pelvis_ty/speed	/jointset/hip_l/hip_flexion_l/speed	/jointset/hip_l/hip_adduction_l/speed	/jointset/hip_l/hip_rotation_l/speed	/jointset/back/lumbar_extension/speed	/jointset/patellofemoral_l/patellar_flexion_l/speed	/jointset/knee_l/knee_flexion_l/speed	/jointset/knee_l/knee_adduction_l/speed	/jointset/knee_l/knee_rotation_l/speed	/jointset/ankle_l/ankle_angle_l/speed	/jointset/subtalar_l/subtalar_angle_l/speed	/forceset/tau_hip_flexion_l	/forceset/tau_hip_adduction_l	/forceset/tau_hip_rotation_l	/forceset/tau_knee_flexion_l	/forceset/tau_ankle_angle_l	/forceset/tau_subtalar_angle_l	/forceset/tau_lumbar_extension	lambda_cid13_p0	lambda_cid13_p1	lambda_cid13_p2	lambda_cid13_p3	lambda_cid13_p4	lambda_cid13_p5	lambda_cid14_p0	/jointset/ground_pelvis/pelvis_tilt/accel	/jointset/ground_pelvis/pelvis_tx/accel	/jointset/ground_pelvis/pelvis_ty/accel	/jointset/hip_l/hip_flexion_l/accel	/jointset/hip_l/hip_adduction_l/accel	/jointset/hip_l/hip_rotation_l/accel	/jointset/back/lumbar_extension/accel	/jointset/patellofemoral_l/patellar_flexion_l/accel	/jointset/knee_l/knee_flexion_l/accel	/jointset/knee_l/knee_adduction_l/accel	/jointset/knee_l/knee_rotation_l/accel	/jointset/ankle_l/ankle_angle_l/accel	/jointset/subtalar_l/subtalar_angle_l/accel	gamma_cid13_p0	gamma_cid13_p1	gamma_cid13_p2	gamma_cid13_p3	gamma_cid13_p4	gamma_cid13_p5	gamma_cid14_p0
0	-0.03682391193416888	0.05667793511050579	0.9203415658200794	0.3085816938045678	-0.2956403444936065	-0.3016074093064232	-0.3879492264334186	0.2499269421184889	0.2499269421184919	-0.1745328989943294	-0.1745328156888171	-0.0008036623358878681	0.0004377388996540956	0	0	0	0	0	0	0	0	0	0	0	0	0	0.06869556318890079	-0.04541909132415837	-0.01947809542729608	-0.2399330016331001	0.1868461127538217	-0.01433657689011623	0.005660394382514105	16.55556792642185	0.7115256959915759	2.42045954011638	9.71101371191665	-623.0084836674514	-73.16223525442011	-23.19692881059379	-0.9727870722816722	-1.995361683376064	-0.915196830454191	9.216711506337962	-0.8162243382556558	3.335749121093107	-7.12846525427939	9.402563117654081	9.402563117655948	1.327660786596823	-0.05788225310632125	1.703329269498197	-0.2977723401591853	1.450316466736993e-09	1.530691652740706e-07	5.12426813777723e-08	-7.298339744223847e-09	1.037459699941115e-07	9.965373328319294e-09	6.068092456524951e-09
0.01	-0.03686920801833343	0.05657997493746825	0.9202967810966255	0.3090311932556309	-0.2956814189594368	-0.3014395846129778	-0.388304895400615	0.2503881990922117	0.2503881990922154	-0.1744702654302128	-0.1745320907173777	-0.0007199443534188627	0.0004220636765318528	-0.009052397641488	-0.01942934189512902	-0.008925725760890079	0.08946305495274201	-0.008185700164950594	0.03342877245026527	-0.07070580555432381	0.09187579618000279	0.09187579618000243	0.01245049255699272	0.0001492576667355669	0.0167767649147856	-0.003092221814098983	0.06678248206082177	-0.05561322078591021	-0.01952566913838968	-0.2417836653114144	0.1885780939725688	-0.004717716561437062	0.008542494179159272	17.38951101349052	-3.485832877648636	2.945562742410636	7.212412581741686	-625.4885075943641	-81.86934366676861	-23.20220460464425	-0.8704507793598217	-1.892317995176456	-0.8765568602293869	8.74557154675276	-0.8153962585790342	3.326016383158571	-6.977440023401435	9.023746869826079	9.023746869825095	1.192341860767142	0.05197287940998588	1.669829343048701	-0.3085540118752487	-3.194361971921583e-08	1.496002323275908e-07	1.364904058533621e-07	2.272168976890914e-08	-1.410832564881444e-08	-4.737194207472083e-08	-4.402572596513563e-09
0.02	-0.03700482501276535	0.05629260183496066	0.9201636798332984	0.3103622170676242	-0.2958034811075091	-0.3009415571797963	-0.3893547827868327	0.2517569458280652	0.2517569458280651	-0.1742854072664205	-0.1745297445487013	-0.0004674628736858948	0.000376744853300622	-0.01806418205408531	-0.0378825858940093	-0.01766330797469467	0.1763048721859056	-0.01619753644847098	0.0660405479471443	-0.138843683804362	0.1814979524261133	0.1814979524261121	0.02444491993465004	0.0003242394473315107	0.03375269945277	-0.005928720021797932	0.06486940093272767	-0.065807350247666	-0.01957324284948495	-0.2436343289897394	0.1903100751913099	0.004901143767235969	0.01142459397579723	18.2962801752688	-7.694526185078625	3.470854789446122	4.597245771140687	-626.8825516297985	-90.48483023449865	-23.21773380522592	-0.9646644265036218	-1.80014210412624	-0.8775681210370924	8.692463962422265	-0.781451561969622	3.172349730415868	-6.614879793422305	8.951835130875619	8.95183513087737	1.236447750729724	-0.05273743033423471	1.74316319413804	-0.2466276188791567	-6.533755590516864e-08	1.46131299381111e-07	2.217381303289519e-07	5.274171928204212e-08	-1.319626212917404e-07	-1.04709257477761e-07	-1.487323764955208e-08
0.03	-0.0372298406850223	0.05582496651989583	0.9199439621327684	0.3125485190829898	-0.2960044815385198	-0.300122756730508	-0.3910724752672593	0.2540101230033367	0.2540101230033372	-0.1739826550148713	-0.174526413477939	-4.532450134852383e-05	0.0003042859738349245	-0.02686117830261337	-0.05554302242057684	-0.02626340865382345	0.2604925432666139	-0.02394574662958343	0.0975366500005321	-0.2042155824294508	0.2687000177007151	0.2687000177007171	0.03603825363573011	0.0003339121666581521	0.0506005589823282	-0.008529306697793452	0.05693506165767316	-0.05884912531895858	-0.01847160785745569	-0.2357326229261919	0.1818501439330034	0.003768294880653873	0.01812278356584218	15.47735931683137	-6.808902407334799	3.443823361161348	5.666359152458093	-628.4150028904152	-87.64960718746715	-23.24289023737269	-0.825557869193533	-1.73376555232004	-0.8487343884296474	8.21246043833138	-0.7630367944913691	3.110779596034662	-6.426460419459056	8.538775503557057	8.538775503556517	1.110731721931886	0.02664399076375681	1.644434939407485	-0.2617602417480465	-8.813548419217528e-08	1.302775789165861e-07	2.76703425065944e-07	7.54068392224633e-08	-2.304834906164716e-07	-1.428489004838205e-07	-2.214476674503688e-08
